<svg 
 xmlns="http://www.w3.org/2000/svg"
 xmlns:xlink="http://www.w3.org/1999/xlink"
 width="10px" height="10px">
<path fill-rule="evenodd"  fill="rgb(255, 255, 255)"
 d="M8.364,9.223 L0.912,9.223 C0.427,9.225 0.032,8.833 0.030,8.349 C0.030,8.346 0.030,8.344 0.030,8.341 C0.028,7.857 0.420,7.462 0.905,7.460 C0.907,7.460 0.909,7.460 0.912,7.460 L6.246,7.467 L0.477,1.702 C0.134,1.359 0.134,0.803 0.477,0.461 C0.820,0.118 1.376,0.118 1.719,0.461 L7.488,6.225 L7.482,0.895 C7.482,0.408 7.877,0.014 8.364,0.014 C8.851,0.014 9.246,0.408 9.246,0.895 L9.246,8.341 C9.264,8.826 8.913,9.232 8.429,9.250 C8.407,9.251 8.385,9.251 8.364,9.223 Z"/>
</svg>